<?xml version="1.0" encoding="utf-8"?>
<!-- Generator: Adobe Illustrator 21.1.0, SVG Export Plug-In . SVG Version: 6.00 Build 0)  -->
<svg version="1.1" id="Layer_1" xmlns="http://www.w3.org/2000/svg" xmlns:xlink="http://www.w3.org/1999/xlink" x="0px" y="0px"
	 viewBox="0 0 1064 571" style="enable-background:new 0 0 1064 571;" xml:space="preserve">
<style type="text/css">
	.st0{fill:#8CC63F;}
	.st1{opacity:0.21;fill:#919191;enable-background:new    ;}
	.st2{fill:#2CF5FF;}
	.st3{opacity:0.34;fill:#6741C4;enable-background:new    ;}
	.st4{fill:#006837;}
	.st5{opacity:0.36;fill:#F2BC44;enable-background:new    ;}
	.st6{opacity:0.97;fill:#F7C1B0;enable-background:new    ;}
	.st7{fill:#F9FF00;}
	.st8{fill:#0000FF;}
	.st9{opacity:0.58;fill:#2E3192;enable-background:new    ;}
	.st10{opacity:0.69;fill:#FFFF00;enable-background:new    ;}
	.st11{fill:#22B222;}
	.st12{fill:none;stroke:#000000;stroke-width:2;stroke-miterlimit:10;}
</style>
<path class="st0" d="M305,189c-5,5-16,41-16,41l26,22l25-37L305,189z"/>
<path class="st1" d="M862,268c-4,0-19,21-19,21l19,11c7-11,7-22,7-22L862,268z"/>
<path class="st2" d="M648,91c0,0-20,16-19,19s11,26,11,26l8,14l26-11l8-16v-16L648,91z"/>
<path class="st3" d="M758,128c0,0-3,60,0,59s23,0,23,0l11-17v-20L758,128z"/>
<path class="st4" d="M523.4,312l-8.5,47l21.2,0.1l18.9-10.2l0.1-22l-18.8-7.5C523.4,312,523.4,312,523.4,312z"/>
<polygon class="st5" points="397,391 420,406 432,405 446,391 446,381 435,368 "/>
<polygon class="st6" points="875,159.1 917.2,180 939.3,178.6 965,159.1 965,145.1 944.8,127 "/>
<path class="st7" d="M904,403c-9-2-60,0-60,0l8,41l68-9v-19L904,403z"/>
<path class="st8" d="M23,518v17l8,17h12h21l15-8l-2-9l-7-17C55,508,23,518,23,518z"/>
<polygon class="st9" points="266,44 281,92 295,92 307,76.6 307,57.7 "/>
<polygon class="st0" points="543,98 515,108 556,115 "/>
<path class="st10" d="M52,444l-9,15l5,23l18-5l13,5l4-19v-10c-10-10-3-9-17-9S52,444,52,444z"/>
<polygon class="st11" points="39.6,500.6 36.4,517.6 53.4,525.1 81.2,527.1 75.8,509.1 57.6,498.1 "/>
<path class="st12" d="M736.6,283c-1.6-1.2-4.1,0.2-4.5,2.1c-0.4,2,0.9,3.9,2.4,5.1c4.9,3.8,13,1.2,15.4-4.5s-0.8-12.9-6.3-15.6
	c-5.6-2.7-12.7-1.1-17.2,3.2c-4.5,4.3-6.4,10.8-5.8,17c0.2,1.9,0.6,3.9,1.7,5.5c1.6,2.6,4.6,4.2,7.5,5.3c7.9,3.1,17.2,3.8,24.7-0.2
	c8.4-4.4,13.2-14.3,12.7-23.8c-0.8-13.5-12.5-25.5-25.9-26.6c-13.4-1.2-27,8.6-30.1,21.7c-1.6,6.5-0.8,13.6-3.8,19.6"/>
<path class="st12" d="M973.9,44.5c-1-2-3.7-2.9-5.7-2c-0.5,4.1,3.3,8,7.4,8.1c5.8,0.1,10-7,7.9-12.3c-2.1-5.4-9-7.9-14.4-6.1
	c-7.4,2.5-11,12.1-8,19.3s11.7,11.2,19.3,9.8c7.4-1.3,13.7-7.3,15.5-14.6s-1-15.7-6.9-20.3"/>
<g id="Layer_1_1_">
	<g>
		<g>
			<path d="M528.1,324.6c-8.4,4.3-9,18.3,0.2,22.2c4.3,1.8,9.4,0.9,13.1-1.9c3.7-2.8,5.8-8.4,3.2-12.7c-2.5-4.1-9.6-3.5-10.2,1.7
				c-0.1,1.3,1.9,1.3,2,0c0.4-3.3,5-2.9,6.4-0.7c1.4,2.2,0.9,5.4-0.4,7.6c-2.2,3.6-6.8,5.4-10.9,4.8c-9.7-1.3-10.5-15.1-2.4-19.3
				C530.3,325.8,529.3,324,528.1,324.6L528.1,324.6z"/>
		</g>
	</g>
	<g>
		<g>
			<path d="M311.7,308.4c3.4-1.2,4.5-5.5,2.6-8.5c-2.4-3.7-7.9-3.1-11-0.7c-3.9,3.1-5.1,8.6-5.4,13.3c-0.4,5.5,0.6,11.2,3.7,15.9
				c5,7.6,16.7,11.6,24.1,4.9c6.3-5.7,6.5-19.2-3.8-20.7c-4.3-0.6-9,3.2-7.8,7.8c1,3.8,6.4,5.2,9,2.1c0.3-0.4,0.4-1,0-1.4
				c-1.9-1.9-4.4-2.5-7-1.6c-1.2,0.4-0.7,2.3,0.5,1.9c1.9-0.6,3.6-0.3,5,1.1c0-0.5,0-0.9,0-1.4c-2.6,3.2-7.1-0.6-5.1-4.1
				c2.4-4.2,8.1-2.4,10.3,1c3.3,5,0.6,12.3-4.3,15.2c-5.9,3.4-13.8,0.7-18-4.2c-4.7-5.5-5.5-13.6-4-20.4c0.9-3.9,2.9-8.4,7.2-9.1
				c2.1-0.4,4.4,0.3,5.2,2.4c0.7,1.7,0.1,4.1-1.8,4.7C310,306.9,310.5,308.9,311.7,308.4L311.7,308.4z"/>
		</g>
	</g>
	<g>
		<g>
			<path d="M429.2,246.7c1.3-2.3-0.3-4.4-2.5-5.3c-2.6-1.1-5.6-0.2-7.8,1.5c-4.5,3.4-6.3,10.4-2.6,15.1c3.4,4.4,10.5,5.4,15,2.2
				c4.8-3.3,5.8-11.6-0.4-14.1c-2.7-1.1-6-0.3-7.2,2.5c-1.1,2.5-0.3,5.7,2.2,7c1.2,0.6,2.2-1.2,1-1.7c-2.5-1.2-2.2-5.2,0.5-6.1
				c2.8-0.9,5.6,1.7,5.8,4.3c0.5,5.6-5.2,8.8-10.2,7.7c-4.6-1-7.6-5.1-6.5-9.7c0.5-2.3,2-4.5,4-5.9c0.9-0.6,1.9-1.1,3-1.2
				c1.1-0.2,5.2,0.5,3.9,2.8C426.8,246.8,428.5,247.9,429.2,246.7L429.2,246.7z"/>
		</g>
	</g>
	<g>
		<g>
			<path d="M659.9,109.6c4.6,3.3-0.8,11.3-5.8,8.2c-5.3-3.2-3.7-10.7,1.8-12.5s10.7,1.6,11.7,7.2c1.1,5.9-2.5,11.3-8,13.2
				c-5.2,1.8-11.1,0.4-14.6-3.9c-3.7-4.5-4.6-11.2-1.8-16.3c2.7-5.2,8.4-8.6,14.3-8.7c5.7-0.1,11.2,3.2,14.4,7.8
				c3.8,5.4,4.1,12.2,0.6,17.9c-3.4,5.5-9.5,9-16,8.6c-1.3-0.1-1.3,1.9,0,2c7.4,0.4,14.4-3.8,18.1-10.2c3.6-6.4,2.9-14-1.4-19.9
				c-4.3-5.8-11.5-9.3-18.7-7.9c-6.9,1.3-13.2,6.8-14.5,13.9c-1.3,6.8,1.8,14.5,8.1,17.8c5.9,3.1,13.8,1.9,18.4-3
				c4.5-4.8,4.9-13.2,0.1-18c-4.2-4.2-12.1-3.9-15.8,0.8c-4,5.1-0.2,14.8,6.9,13.9c5.8-0.7,8.3-9.2,3.5-12.7
				C659.8,107.1,658.8,108.8,659.9,109.6L659.9,109.6z"/>
		</g>
	</g>
	<g>
		<g>
			<path d="M858.4,94.9c1.2-1.7,2.7,0.7,2.9,1.7c0.2,0.9,0.1,1.8,0.1,2.7c0.2-0.3,0.5-0.6,0.7-1c-4.9,1.7-7.1-5.3-2.5-7.5
				c4.3-2,8.1,2.9,7.1,6.9c-0.9,3.9-4.9,6.3-8.8,5.6c-3.7-0.7-6.3-4.6-5.2-8.3c1-3.5,4.7-5,7.9-5.8c1.4-0.3,3.3-0.9,4.7-0.7
				c2.2,0.2,3.6,2,4.5,3.9c3.5,7.5-1.5,15.7-9.3,17.2c-1.3,0.2-0.7,2.2,0.5,1.9c8.8-1.6,14.2-10.9,10.8-19.4c-1.7-4.1-4.6-6.1-9-5.4
				c-3.8,0.6-8.1,1.7-10.6,4.8c-2.4,3-2.3,7.2-0.1,10.3c2.3,3.1,6.4,4.2,10,3.1c7.7-2.3,9.6-14.7,0.6-16.5c-3.8-0.8-7.8,2.2-7.9,6.1
				c-0.1,4,4.1,6.9,7.8,5.6c0.4-0.2,0.7-0.5,0.7-1c0.1-2.2,0.1-5-2.1-6.3c-1.6-1-3.5-0.6-4.6,0.9C855.9,95,857.7,96,858.4,94.9
				L858.4,94.9z"/>
		</g>
	</g>
	<g>
		<g>
			<path d="M762.7,434c-2.1-2.8-5.8-0.3-6.1,2.5c-0.4,3.2,2.3,6.5,5.5,7c7.4,1.1,9-10.9,2.1-12.9c-3.3-0.9-7.2,0.5-8.9,3.5
				c-1.9,3.3-0.8,7.6,1.8,10.1c6.8,6.7,16.6-1.2,18.2-8.6c0.9-4.4-0.1-9.3-4.1-11.9c-3.3-2.2-7.8-2.4-11.4-1
				c-8.3,3.3-12.5,13.7-12.2,22.1c0.4,8.3,5.8,16,14.8,15.5c9.6-0.6,18.1-8.5,22-16.9c4.5-9.5,3.4-21.7-4.9-28.9
				c-7.4-6.5-19.4-6.4-26,1.3c-0.8,1,0.6,2.4,1.4,1.4c4.2-4.9,11.2-6.5,17.3-4.6c6.5,2,10.9,8.1,12.4,14.6
				c1.5,6.9-0.5,13.9-4.4,19.6s-10.3,11-17.4,11.6c-6.7,0.6-11.6-4.1-12.8-10.5c-1.2-6.1,0.5-12.8,4.1-17.8c3.8-5.3,12.1-9,17.4-3.5
				c5.6,5.7,0.4,16.4-6.6,17.9c-4.1,0.9-8.2-2-8.4-6.3c-0.2-3.8,3.7-6.7,7.3-5.6c3.5,1.1,4.1,6.2,1.2,8.4c-1.7,1.3-3.9,0.5-5.2-1
				c-0.6-0.7-1.1-1.6-1.1-2.5c0-0.7,1.3-3.9,2.4-2.4C761.8,436,763.5,435,762.7,434L762.7,434z"/>
		</g>
	</g>
	<g>
		<g>
			<path d="M283.8,58.2c1.1-1.9,0.5-4.1-1.4-5.2c-0.5-0.3-1-0.1-1.4,0.4c-2.4,3.3-5.3,7.9-2.4,11.8c2,2.7,5.8,3.4,7.9,0.4
				c5.3-7.2,2.9-19-5.3-22.8c-7.8-3.6-14.9,2-17.9,9c-3.4,7.8-3.1,17.7,0.4,25.4c3.6,8,11.2,13,20,13.1c9,0.1,17.1-4.9,21.3-12.8
				c9-16.9-1.7-37.4-19.2-43.2c-4.8-1.6-10.2-2.1-15.1-0.6c-4.8,1.5-8.4,4.9-11,9.1c-6.5,10.8-9.5,24-9.9,36.6c0,1.3,2,1.3,2,0
				c0.2-9,2-17.9,5.2-26.3c3-7.9,7.2-16.2,16.2-17.9c15.3-2.8,30.9,11,32.8,25.7c1.9,15.5-10.9,30.6-27.1,26.9
				c-15.4-3.5-20-24-13.2-36.7c1.7-3.2,4.4-6.2,8-7.1c4.5-1.1,9.1,1.4,11.5,5.2c2.6,4.2,2.4,10.3-0.1,14.5c-0.9,1.6-2.4,2.5-4.1,1.3
				c-1.1-0.8-1.8-1.9-1.8-3.2c-0.2-2.8,1.7-5.3,3.3-7.4c-0.5,0.1-0.9,0.2-1.4,0.4c1,0.6,1.3,1.5,0.7,2.5
				C281.5,58.3,283.2,59.3,283.8,58.2L283.8,58.2z"/>
		</g>
	</g>
	<g>
		<g>
			<path d="M31.9,477c2.7-2.4,2.1-6.3,2.4-9.5c0.3-4.4,1.4-8.7,3.1-12.8c3.3-7.8,9.2-14.6,17-18.1c14-6.2,34.2,2.3,35.9,18.5
				c0.6,5.2-1.2,10.6,0.4,15.6c1.2,3.7,3.9,6.7,7.9,7c1.3,0.1,1.3-1.9,0-2c-6.2-0.5-6.8-8.1-6.5-12.8c0.3-4.3,0.6-8.5-0.9-12.6
				c-2.3-6.7-7.8-12-14.2-15c-6.6-3.1-14.2-3.9-21.2-1.4c-7.5,2.6-13.6,8.1-17.7,14.9c-2.4,3.9-4.1,8.3-5.1,12.8
				c-0.4,2.1-0.7,4.2-0.9,6.3c-0.2,2.6,0.4,5.9-1.8,7.8C29.5,476.5,30.9,477.9,31.9,477L31.9,477z"/>
		</g>
	</g>
	<g>
		<g>
			<path d="M69.5,442.7c-8.8-1-18.3,4.7-20.5,13.5s4.5,18.4,13.5,19.7c8.1,1.1,14.6-5.7,15.2-13.4c0.7-8.2-6.7-15.1-14.9-12.7
				c-4.2,1.2-6.9,5-6.4,9.4c0.4,4,3.1,7.3,7.1,7.8c1.3,0.2,1.3-1.8,0-2c-3.4-0.5-5.3-4-5.1-7.2c0.2-3.7,3.3-6.1,6.9-6.4
				c7.1-0.6,11.7,5.9,10.3,12.5c-1.3,6.5-7.2,11.5-14,9.8c-7.3-1.8-12.6-9.9-10.5-17.3c2.2-7.8,10.6-12.6,18.5-11.7
				C70.8,444.8,70.8,442.8,69.5,442.7L69.5,442.7z"/>
		</g>
	</g>
	<path class="st12" d="M101.9,463.6c16.5,3.8,32-12.4,48.9-10.8c2,0.2,4.5,1.1,4.7,3.1c0.1,1-0.4,2.1-0.9,3
		c-4.7,8.1-15.4,12.5-23.2,17.6c-16.1,10.4-35.6,18.9-54,13.5c-7.1-2.1-13.6-6.2-20.7-8.2c-15.5-4.3-31.8,1.4-46.8,7.1"/>
	<path class="st12" d="M156.1,419"/>
	<path class="st12" d="M142.1,456.4c7.4-7.8,8.8-19.3,9.9-30c0.3-3.4,0.7-7,2.4-10"/>
	<path class="st12" d="M134.1,457.7c2.9-8.3,4.5-17,4.8-25.7c0.2-5.6-1.8-13-7.4-13.1c-3.5,0-6.4,3.8-5.5,7.1
		c0.9,3.3,5.4,5.1,8.3,3.3c3.6-2.2,3.6-7.4,2.5-11.5c-3.7-0.8-7.8,0.4-10.4,3.1"/>
	<path class="st12" d="M551.7,206c-11.8,0.2-23.7,0.4-35.5,0.6C528.6,205.7,539.4,207,551.7,206z"/>
	<path class="st12" d="M946.4,336.5c10.8,0,21.5,0,32.3,0"/>
	<path class="st12" d="M533.6,55.6c-0.7-1.8-3.7-1.4-4.7,0.3s-0.5,3.8,0,5.7c3.5,0,6.9,0,10.4,0c0-1.9,0-3.8,0-5.6
		c-2.3-1.1-4.6-2.1-6.9-3.2"/>
	<path class="st12" d="M511.7,82.6c15.5-0.7,31-2.1,46.3-4.4"/>
	<path class="st12" d="M537.6,97.7c-3.1-0.8-5.4,3.7-3.8,6.5c1.7,2.7,5.4,3.4,8.5,2.9c2.3-0.4,4.9-1.9,4.6-4.2
		c-0.2-1.5-1.6-2.5-2.9-3.4c-3.2-2.1-9.1-2.9-9.2,0.9"/>
	<path class="st12" d="M241.6,139c-5.6,19.2-11.8,38.1-18.8,56.9"/>
	<path class="st12" d="M769.9,9c-12.3,5.8-19.8,20.4-17.3,33.7s14.8,24.3,28.3,25.2"/>
	<g>
		<path class="st12" d="M150,93.9c9.3-1,18.6-1.9,27.9-2.9"/>
		<path class="st12" d="M151.6,113.1c9.3,0.9,18.8-0.1,27.7-3"/>
	</g>
	<path class="st12" d="M616.7,191.1c-2.4-1.1-5.2,1.1-6.2,3.6c-1,2.7-0.6,5.9,1.2,8.1c1.8,2.2,5.2,3,7.7,1.8
		c2.6-1.2,3.9-4.7,2.6-7.2c-1.3-2.6-5.1-3.5-7.2-1.6c-1.5,1.3-1.8,4-0.4,5.4c1.5,1.4,4.4,0.6,4.7-1.4c-0.5,0-1-0.1-1.5-0.1"/>
	<path class="st12" d="M187.1,331.2c-3.4-1.7-6.8,2.9-6.6,6.7c0.3,4.9,4,9.5,8.8,10.4s10.2-2.5,11-7.3s-3.6-10-8.4-9.5
		c-4.9,0.5-8.1,7-5.2,10.9c3,1.7,6.9,1.5,9.7-0.5c-0.1-1.3-1.8-2.1-2.9-1.5"/>
	<path class="st12" d="M310.2,202c0.4-1.4-1.6-2.6-3-2s-2.1,2-2.7,3.4c-2.1,4.7-4.1,9.6-4.2,14.7c-0.2,5.1,1.8,10.6,6.1,13.4
		c4.7,3.1,11.4,2.2,15.6-1.5s5.9-9.8,5-15.4c-0.6-3.6-2.9-7.5-6.5-8c-3.2-0.4-6.2,1.9-8.1,4.6c-3.6,5-3.3,14.1,2.7,15
		c1.1,0.2,2.3-0.1,2.9-1s-0.1-2.5-1.2-2.3s-0.7,2.3,0.3,1.9"/>
	<path class="st12" d="M421.7,374.1c1.6,12.8,3.2,25.6,4.9,38.4"/>
	<path class="st12" d="M403.9,396.8c16.5-3.3,32.9-6.6,49.4-9.9"/>
	<path class="st12" d="M16.6,529.3c-0.6,4.7-1,9.8,1.2,14c2,3.9,6,6.4,9.9,8.6c9,5.1,19.1,9.5,29.3,8.3
		c15.4-1.8,27.4-18.1,24.6-33.3C79,512.6,59.7,500.5,46,498.5C26.4,495.6,18.8,512.2,16.6,529.3z"/>
	<path class="st12" d="M48.7,505.1c2.5,5.1,3.7,10.8,3.5,16.5c2-0.3,4-0.7,5.9-1c0.5,4,1,8.1,1.5,12.1c3.3-1.6,9.2-1.6,8.8,2.1
		c2.3-0.6,4.6-1.1,7-1.7c1.3-1.6,0.9-3.9,0.4-5.8s-1.1-4.1-0.2-5.9c0.9-1.8,4.1-2.3,4.7-0.4"/>
	<path class="st12" d="M22.6,520.2c1.8-3.5,7.6-2.2,9.9,1s2.9,7.5,5.1,10.8c-2.2,0.8-4.1,2.2-5.7,3.9c2.2,0.2,2.3,4.2,0.2,4.6
		c1.1,1.8,2.2,3.6,3.3,5.3c-1.1-5.6,13.2,4.2,15.7-0.8c1.8,1.2,2.7,3.5,2.3,5.7c3.6-0.2,7.3,0.1,10.8,1"/>
	<path class="st12" d="M778.6,139.5c-7.4-5.8-18.8-4.9-26.2,0.9c-7.4,5.9-10.8,15.8-10,25.2c0.5,6.1,2.8,12.4,7.6,16.3
		c3,2.4,6.9,3.7,10.7,4.4c10,1.6,21-1.3,28-8.7s9.3-19.2,4.7-28.2c-4.7-9-16.6-14-25.9-9.9"/>
	<path class="st12" d="M748.1,164.7c3.8-4.3,11-3.1,15.7,0.2s8.1,8.2,12.8,11.4s12,4.1,15.6-0.4"/>
	<path class="st12" d="M1018.1,203.8c-0.6,0.5-0.7-1.1,0.1-1c0.7,0.1,0.9,1.1,0.9,1.8c0.3,10.9,0.6,21.8,1,32.6"/>
	<path class="st12" d="M991.7,223.2c14.2,0,28.5,0.1,42.7,0.1c3.7,0,7.5,0,11.2,0"/>
	<path class="st12" d="M902.6,145.4c-3.1-1.9-7.5-1.4-10,1.2c-2.6,2.6-3,7-1.1,10c2.9,4.6,9.3,5.1,13.8,8.2c4.9,3.3,7.1,10,5.3,15.6
		c3.1-7.2,5.6-15.1,4.1-22.7c-1.6-7.7-8.5-14.7-16.3-13.9"/>
	<path class="st12" d="M935.2,139.3c-1.4-2.8-6.1-2-7.4,0.9s0.1,6.2,2.2,8.5c2.1,2.3,4.8,4,6.9,6.3c5.3,5.6,6.2,14.7,2.2,21.3
		c6-6.2,10.8-14.3,10.5-22.9c-0.3-8.6-7.2-17.3-15.8-17.2"/>
	<path class="st12" d="M875.2,409.5c1.1,6.2,1.6,12.5,1.3,18.8c10.4-1.6,20.9-3.2,31.3-4.8c3.5-3.6,1.2-10-3.1-12.5
		s-9.6-2.1-14.6-1.7c-6.2,0.5-12.4,1.1-18.5,1.6"/>
	<path class="st12" d="M859.9,277.5c-4.7-2.5-11.4,1.8-11,7.1c0.4,5.3,7.9,8.4,11.9,4.9s1.6-11.5-3.7-12.1"/>
	<path class="st12" d="M886.3,274.2c-9.5,13.5-19,26.9-28.5,40.4c-0.3,0.5-0.8,1-1.3,0.7s0.3-1.2,0.4-0.6"/>
	<path class="st12" d="M890.5,297.7c-3.5,0.2-6.7,2.9-7.6,6.3c-0.1,0.5-0.2,1.1-0.1,1.7c0.3,1.1,1.3,1.8,2.4,2.3
		c3.1,1.3,7.5,0.3,8.6-2.9s-3.2-7-5.7-4.8"/>
	<path class="st12" d="M162.6,414c-0.5,3.8-8.2,6.5-8.1,1.3C154.6,410.6,163.4,408.1,162.6,414z"/>
</g>
</svg>
